<svg viewBox="0 0 96 96" xmlns="http://www.w3.org/2000/svg" xmlns:xlink="http://www.w3.org/1999/xlink" id="Icons_Group_M" overflow="hidden"><g id="Icons"><path d="M20 40.066C20 39.5137 19.5523 39.066 19 39.066L19 39.066C18.4477 39.066 18 39.5137 18 40.066L18 47.479 21.185 59.079 8.816 59.079 12 47.616 12 40.066C12 39.5137 11.5523 39.066 11 39.066L11 39.066C10.4477 39.066 10 39.5137 10 40.066L10 47.342 6.185 61.083 10 61.083 10 76.083 20 76.083 20 61.083 23.816 61.083 20 47.343ZM12 61.083 14 61.083 14 74.083 12 74.083ZM18 74.083 16 74.083 16 61.083 18 61.083Z"/><path d="M41 39.067C40.4477 39.067 40 39.5147 40 40.067L40 74.088 38 74.088 38 54.067 36 54.067 36 74.088 34 74.088 34 40.067C34 39.5147 33.5523 39.067 33 39.067 32.4477 39.067 32 39.5147 32 40.067L32 76.088 42 76.088 42 40.067C42 39.5147 41.5523 39.067 41 39.067Z"/><path d="M37 30.067C39.7614 30.067 42 27.8284 42 25.067 42 22.3056 39.7614 20.067 37 20.067 34.2386 20.067 32 22.3056 32 25.067 32.0033 27.8271 34.2399 30.0637 37 30.067ZM37 22.067C38.6569 22.067 40 23.4101 40 25.067 40 26.7239 38.6569 28.067 37 28.067 35.3431 28.067 34 26.7239 34 25.067 34 23.4101 35.3431 22.067 37 22.067Z"/><path d="M15 30.067C17.7614 30.067 20 27.8284 20 25.067 20 22.3056 17.7614 20.067 15 20.067 12.2386 20.067 10 22.3056 10 25.067 10.0033 27.8271 12.2399 30.0637 15 30.067ZM15 22.067C16.6569 22.067 18 23.4101 18 25.067 18 26.7239 16.6569 28.067 15 28.067 13.3431 28.067 12 26.7239 12 25.067 12 23.4101 13.3431 22.067 15 22.067Z"/><path d="M64 40.066C64 39.5137 63.5523 39.066 63 39.066L63 39.066C62.4477 39.066 62 39.5137 62 40.066L62 47.479 65.185 59.079 52.816 59.079 56 47.616 56 40.066C56 39.5137 55.5523 39.066 55 39.066L55 39.066C54.4477 39.066 54 39.5137 54 40.066L54 47.342 50.184 61.082 54 61.082 54 76.082 64 76.082 64 61.082 67.816 61.082 64 47.343ZM56 61.083 58 61.083 58 74.083 56 74.083ZM62 74.083 60 74.083 60 61.083 62 61.083Z"/><path d="M85 39.067C84.4477 39.067 84 39.5147 84 40.067L84 74.088 82 74.088 82 54.067 80 54.067 80 74.088 78 74.088 78 40.067C78 39.5147 77.5523 39.067 77 39.067 76.4477 39.067 76 39.5147 76 40.067L76 76.088 86 76.088 86 40.067C86 39.5147 85.5523 39.067 85 39.067Z"/><path d="M81 30.067C83.7614 30.067 86 27.8284 86 25.067 86 22.3056 83.7614 20.067 81 20.067 78.2386 20.067 76 22.3056 76 25.067 76.0033 27.8271 78.2399 30.0637 81 30.067ZM81 22.067C82.6569 22.067 84 23.4101 84 25.067 84 26.7239 82.6569 28.067 81 28.067 79.3431 28.067 78 26.7239 78 25.067 78 23.4101 79.3431 22.067 81 22.067Z"/><path d="M59 30.067C61.7614 30.067 64 27.8284 64 25.067 64 22.3056 61.7614 20.067 59 20.067 56.2386 20.067 54 22.3056 54 25.067 54.0033 27.8271 56.2399 30.0637 59 30.067ZM59 22.067C60.6569 22.067 62 23.4101 62 25.067 62 26.7239 60.6569 28.067 59 28.067 57.3431 28.067 56 26.7239 56 25.067 56 23.4101 57.3431 22.067 59 22.067Z"/><path d="M92.535 50.635 90 36.255C89.8407 35.62 89.4762 35.0555 88.963 34.649 87.6869 33.6923 86.24 32.9877 84.7 32.573 83.5011 32.2542 82.2675 32.0843 81.027 32.067 79.8124 32.0772 78.6045 32.2487 77.435 32.577 75.8996 32.9919 74.4572 33.6954 73.185 34.65 72.6479 35.0613 72.2758 35.6512 72.136 36.313L70.008 47.605C70.008 47.6105 70.0035 47.615 69.998 47.615 69.9925 47.615 69.988 47.6105 69.988 47.605L67.853 36.255C67.7071 35.6143 67.3399 35.0456 66.816 34.649 65.5454 33.6959 64.1052 32.9931 62.572 32.578 61.3999 32.249 60.1893 32.0771 58.972 32.067 57.7264 32.0847 56.4877 32.256 55.284 32.577 53.7677 32.9855 52.3425 33.6778 51.084 34.617 50.5311 35.0431 50.1425 35.6472 49.984 36.327L47.948 48.11C47.948 48.1155 47.9435 48.12 47.938 48.12 47.9325 48.12 47.928 48.1155 47.928 48.11L46 36.255C45.8407 35.62 45.4762 35.0555 44.963 34.649 43.6869 33.6923 42.24 32.9877 40.7 32.573 39.5011 32.2542 38.2675 32.0843 37.027 32.067 35.8124 32.0772 34.6045 32.2487 33.435 32.577 31.8996 32.9919 30.4572 33.6954 29.185 34.65 28.6479 35.0613 28.2758 35.6512 28.136 36.313L26.008 47.605C26.008 47.6105 26.0035 47.615 25.998 47.615 25.9925 47.615 25.988 47.6105 25.988 47.605L23.853 36.255C23.7071 35.6143 23.3399 35.0456 22.816 34.649 21.5454 33.6959 20.1052 32.9931 18.572 32.578 17.3999 32.249 16.1893 32.0771 14.972 32.067 13.7264 32.0847 12.4877 32.256 11.284 32.577 9.76769 32.9855 8.34254 33.6778 7.084 34.617 6.53184 35.0425 6.14332 35.6454 5.984 36.324L3.461 50.643C3.20075 52.1119 3.91459 53.5815 5.23 54.285 5.71198 54.5547 6.3213 54.3825 6.59096 53.9006 6.86061 53.4186 6.68849 52.8093 6.20651 52.5396 6.18157 52.5256 6.15604 52.5128 6.13 52.501 5.5985 52.194 5.31807 51.5855 5.43 50.982L7.941 36.74C7.99566 36.5526 8.09921 36.3832 8.241 36.249 9.30374 35.4514 10.508 34.8623 11.79 34.513 12.8305 34.2348 13.9011 34.085 14.978 34.067 16.0184 34.0774 17.0528 34.2261 18.054 34.509 19.3416 34.8578 20.5511 35.4483 21.618 36.249 21.7603 36.3559 21.8611 36.509 21.903 36.682L25.018 53.251C25.1194 53.7939 25.6417 54.1518 26.1846 54.0504 26.5906 53.9746 26.9082 53.657 26.984 53.251L30.084 36.739C30.121 36.5443 30.2276 36.3697 30.384 36.248 31.4528 35.4465 32.6643 34.8557 33.954 34.507 34.9536 34.2245 35.9863 34.0762 37.025 34.066 38.0967 34.0836 39.1623 34.232 40.198 34.508 41.4991 34.8621 42.7209 35.4607 43.798 36.272 43.903 36.3841 43.9864 36.5146 44.044 36.657L46.925 54.368C47.0036 54.8499 47.4187 55.2046 47.907 55.207L47.912 55.207C48.3982 55.2069 48.8139 54.857 48.897 54.378L51.941 36.74C51.9957 36.5526 52.0992 36.3832 52.241 36.249 53.3037 35.4514 54.508 34.8623 55.79 34.513 56.8305 34.2348 57.9011 34.085 58.978 34.067 60.0184 34.0774 61.0528 34.2261 62.054 34.509 63.3416 34.8578 64.5511 35.4483 65.618 36.249 65.7603 36.3559 65.8611 36.509 65.903 36.682L69.018 53.251C69.1194 53.7939 69.6417 54.1518 70.1846 54.0504 70.5906 53.9746 70.9082 53.657 70.984 53.251L74.084 36.739C74.121 36.5443 74.2276 36.3697 74.384 36.248 75.4528 35.4465 76.6644 34.8557 77.954 34.507 78.9536 34.2245 79.9863 34.0762 81.025 34.066 82.0967 34.0836 83.1623 34.232 84.198 34.508 85.4991 34.8621 86.7209 35.4607 87.798 36.272 87.9063 36.3877 87.9905 36.5236 88.046 36.672L90.569 50.972C90.7064 51.6641 90.3125 52.3515 89.646 52.583 89.459 52.6342 89.263 52.6435 89.072 52.61 88.528 52.5136 88.0089 52.8765 87.9125 53.4205 87.8161 53.9645 88.179 54.4836 88.723 54.58 89.202 54.6645 89.6936 54.6423 90.163 54.515 91.8269 54.015 92.8485 52.3438 92.535 50.635Z"/></g></svg>