<svg viewBox="0 0 96 96" xmlns="http://www.w3.org/2000/svg" xmlns:xlink="http://www.w3.org/1999/xlink" id="Icons_Blueprint_M" overflow="hidden"><g id="Icons"><path d="M66.002 59.927 66.002 57.927 59.002 57.927 59.002 68.927 57.002 68.927 57.002 70.927 76.002 70.927 76.002 36.927 67.561 36.927 65.561 38.927 74.002 38.927 74.002 48.927 58 48.927 58 50.927 74.002 50.927 74.002 57.927 71.002 57.927 71.002 59.927 74.002 59.927 74.002 68.927 61.002 68.927 61.002 59.927 66.002 59.927Z"/><path d="M79.561 24.927 77.561 26.927 85 26.927 85 79.927 20.89 79.927C21.9881 78.8532 22.7016 77.4473 22.92 75.927L23 74.927 23 26.927 56.478 26.927 58.478 24.927 23 24.927 23 21.927C23 18.061 19.866 14.927 16 14.927 12.134 14.927 9 18.061 9 21.927L9 74.927 9.08 75.927C9.55802 79.1971 12.258 81.6874 15.556 81.9L87 81.927 87 24.927ZM11 21.927C11 19.1656 13.2386 16.927 16 16.927 18.7614 16.927 21 19.1656 21 21.927L21 70.037C18.311 67.2756 13.8925 67.2169 11.1311 69.9059 11.0868 69.949 11.0431 69.9927 11 70.037ZM11 74.927C11 72.1656 13.2386 69.927 16 69.927 18.7614 69.927 21 72.1656 21 74.927 21 77.6884 18.7614 79.927 16 79.927 13.2399 79.9237 11.0033 77.6871 11 74.927Z"/><path d="M44.5 38.927 46.496 36.927 32 36.927 32 70.927 51.002 70.927 51.002 68.927 49.002 68.927 49.002 57.927 42.002 57.927 42.002 59.927 47.002 59.927 47.002 68.927 34 68.927 34 59.927 37.002 59.927 37.002 57.927 34 57.927 34 51 40.153 51 40.816 49 34 49 34 38.927 44.5 38.927Z"/><path d="M43.5 50.43 52.92 47.323 82.365 17.782C83.14 17.1011 83.2163 15.9208 82.5354 15.1457 82.4969 15.102 82.4564 15.06 82.414 15.02L78.914 11.52C78.154 10.7438 76.9086 10.7306 76.1324 11.4906 76.1225 11.5003 76.1127 11.5101 76.103 11.52L46.609 41.06ZM77.508 12.942 80.941 16.377 77.866 19.452 74.431 16.017ZM72.683 17.766 73.017 17.431 76.489 20.9 76.142 21.272 54.517 42.9C54.1335 41.1688 52.7744 39.821 51.04 39.452ZM48.359 42.138 48.768 41.728C49.1711 41.4831 49.6333 41.3524 50.105 41.35 50.7746 41.3501 51.4162 41.6189 51.886 42.096 52.7381 42.9224 52.8692 44.2433 52.196 45.221L51.844 45.573 47.667 46.951 46.988 46.272Z"/></g></svg>