<svg viewBox="0 0 96 96" xmlns="http://www.w3.org/2000/svg" xmlns:xlink="http://www.w3.org/1999/xlink" id="Icons_BoardOfDirectors_M" overflow="hidden"><path d="M21.332 72.277 21.332 72C21.332 70.3431 19.9889 69 18.332 69L14.332 69 14.332 66.456C12.7862 65.7688 11.5502 64.5328 10.863 62.987L7.937 62.174C7.1546 61.9589 6.58074 61.2909 6.486 60.485L4.105 40.646C3.97278 39.5494 4.75459 38.5532 5.85122 38.421 5.89202 38.4161 5.93297 38.4124 5.974 38.41L17 37.762C17.039 37.762 17.078 37.762 17.117 37.762 18.1191 37.7654 18.9653 38.507 19.1 39.5L19.68 43.992 21.363 41.411 21.084 39.245C20.8064 37.1667 18.9777 35.6511 16.884 35.764L13.228 35.979 12.362 30.661C12.1855 29.5706 12.9263 28.5436 14.0166 28.3671 14.0774 28.3572 14.1386 28.3502 14.2 28.346L23.164 27.746C23.21 27.746 23.256 27.746 23.301 27.746 24.2897 27.7431 25.1302 28.4676 25.273 29.446L26.019 34.28 27.656 31.772 27.25 29.141C26.946 27.0831 25.1057 25.6083 23.031 25.76L22.095 25.823 21.668 21.981C21.5421 20.8836 22.3296 19.892 23.4269 19.766 23.4513 19.7632 23.4756 19.7609 23.5 19.759L30.5 19.221C30.554 19.221 30.606 19.214 30.659 19.214 31.6825 19.212 32.5407 19.9866 32.643 21.005L33.043 24.834C33.6375 24.4228 34.2745 24.0768 34.943 23.802L34.632 20.8C34.4193 18.6391 32.5108 17.0494 30.347 17.231L23.347 17.769C21.1444 17.9383 19.496 19.8611 19.6653 22.0638 19.6688 22.1089 19.673 22.154 19.678 22.199L20.095 25.953 14.064 26.353C11.8598 26.5 10.192 28.4061 10.339 30.6103 10.3474 30.7361 10.3618 30.8615 10.382 30.986L11.214 36.101 5.853 36.416C3.64769 36.546 1.96536 38.4392 2.0954 40.6445 2.10016 40.7252 2.10736 40.8057 2.117 40.886L4.5 60.723C4.68956 62.3339 5.83629 63.6692 7.4 64.1L12.331 65.469 12.331 69 8.331 69C6.67415 69 5.331 70.3431 5.331 72L5.331 72.277C4.37441 72.8293 4.04666 74.0525 4.59895 75.009 5.15123 75.9656 6.37441 76.2934 7.331 75.7411 8.28759 75.1888 8.61534 73.9656 8.06305 73.009 7.88751 72.705 7.63504 72.4525 7.331 72.277L7.331 72C7.331 71.4477 7.77872 71 8.331 71L12.331 71 12.331 72.277C11.3744 72.8293 11.0467 74.0525 11.5989 75.009 12.1512 75.9656 13.3744 76.2934 14.331 75.7411 15.2876 75.1888 15.6153 73.9656 15.0631 73.009 14.8875 72.705 14.635 72.4525 14.331 72.277L14.331 71 18.331 71C18.8833 71 19.331 71.4477 19.331 72L19.331 72.277C18.3744 72.8293 18.0467 74.0525 18.5989 75.009 19.1512 75.9656 20.3744 76.2934 21.331 75.7411 22.2876 75.1888 22.6153 73.9656 22.063 73.009 21.8875 72.705 21.635 72.4525 21.331 72.277Z"/><path d="M88.689 64.1C90.2529 63.6688 91.3996 62.3331 91.589 60.722L93.97 40.883C94.2334 38.6896 92.6688 36.698 90.4754 36.4347 90.3948 36.425 90.314 36.4178 90.233 36.413L84.873 36.098 85.705 30.983C86.0595 28.8025 84.5792 26.7475 82.3987 26.393 82.2742 26.3727 82.1488 26.3584 82.023 26.35L75.992 25.95 76.41 22.2C76.654 20.0044 75.0719 18.0267 72.8762 17.7827 72.8312 17.7777 72.7861 17.7735 72.741 17.77L65.741 17.232C63.5811 17.0604 61.6794 18.6447 61.458 20.8L61.13 23.92C61.8004 24.2206 62.4355 24.5942 63.024 25.034L63.448 21.005C63.5499 19.9864 64.4083 19.2115 65.432 19.214 65.484 19.214 65.537 19.214 65.59 19.221L72.59 19.759C73.6913 19.8434 74.5158 20.8046 74.4314 21.9059 74.4296 21.9287 74.4275 21.9513 74.425 21.974L74 25.816 73.065 25.753C70.9915 25.6053 69.1536 27.0782 68.846 29.134L68.384 32.124 70.021 34.63 70.821 29.439C70.9647 28.4607 71.8052 27.7365 72.794 27.739 72.839 27.739 72.885 27.739 72.931 27.739L81.895 28.339C82.9971 28.4125 83.831 29.3655 83.7576 30.4676 83.7534 30.5307 83.7462 30.5936 83.736 30.656L82.871 35.974 79.214 35.759C77.1182 35.6397 75.2857 37.1585 75.014 39.24L74.688 41.769 76.372 44.348 76.998 39.495C77.1296 38.499 77.9774 37.7538 78.982 37.751 79.02 37.751 79.059 37.751 79.099 37.751L90.123 38.399C91.2257 38.4634 92.0674 39.4095 92.003 40.5122 92.0006 40.5532 91.9969 40.5942 91.992 40.635L89.605 60.485C89.5084 61.2901 88.9353 61.9572 88.154 62.174L84.911 63.074C84.2599 64.4833 83.1482 65.6289 81.759 66.322L81.759 69 77.759 69C76.1021 69 74.759 70.3431 74.759 72L74.759 72.368C73.8546 73.0021 73.6355 74.2494 74.2697 75.1538 74.9038 76.0582 76.1511 76.2772 77.0555 75.6431 77.9598 75.0089 78.1789 73.7617 77.5448 72.8573 77.3449 72.5722 77.074 72.3443 76.759 72.196L76.759 72C76.759 71.4477 77.2067 71 77.759 71L81.759 71 81.759 72.277C80.8024 72.8293 80.4747 74.0525 81.027 75.009 81.5792 75.9656 82.8024 76.2934 83.759 75.7411 84.7156 75.1888 85.0433 73.9656 84.4911 73.009 84.3155 72.705 84.063 72.4525 83.759 72.277L83.759 71 87.759 71C88.3113 71 88.759 71.4477 88.759 72L88.759 72.277C87.8024 72.8293 87.4747 74.0525 88.027 75.009 88.5792 75.9656 89.8024 76.2934 90.759 75.7411 91.7156 75.1888 92.0433 73.9656 91.4911 73.009 91.3155 72.705 91.063 72.4525 90.759 72.277L90.759 72C90.759 70.3431 89.4159 69 87.759 69L83.759 69 83.759 65.47Z"/><path d="M79.786 64.93C81.3441 64.5289 82.6099 63.3955 83.18 61.891 83.7095 60.4721 83.51 58.8838 82.646 57.64L63.614 28.491 63.6 28.469 63.585 28.447C62.0438 26.2637 59.5294 24.9755 56.857 25L38.942 25C36.2683 24.9752 33.7528 26.2647 32.212 28.45L32.197 28.472 32.182 28.494 13.167 57.645C12.3045 58.8883 12.1051 60.4749 12.633 61.893 13.2021 63.3962 14.4658 64.5295 16.022 64.932L22.522 66.669C25.618 67.497 28.747 68.1713 31.909 68.692L31.909 79.257C31.9093 80.6336 32.8464 81.8334 34.182 82.167L35.689 82.544C43.7045 84.5477 52.0977 84.4823 60.081 82.354L60.681 82.193C61.9947 81.8427 62.9086 80.6526 62.908 79.293L62.908 68.833C66.3525 68.3041 69.7663 67.5921 73.135 66.7ZM60.909 79.294C60.9089 79.7469 60.6045 80.1432 60.167 80.26L59.567 80.421C51.9114 82.4624 43.8626 82.5254 36.176 80.604L34.669 80.227C34.2237 80.1159 33.9111 79.716 33.911 79.257L33.911 68.988C38.5386 69.6575 43.2082 69.9957 47.884 70 52.2402 69.9984 56.5915 69.7071 60.909 69.128ZM47.884 68C39.4952 67.9999 31.1424 66.9029 23.038 64.737L16.539 63C15.0466 62.6764 14.0991 61.2043 14.4227 59.7119 14.4967 59.3708 14.6345 59.0468 14.829 58.757L33.857 29.587C35.0272 27.9453 36.926 26.9793 38.942 27L56.857 27C58.8719 26.9795 60.7697 27.9447 61.94 29.585L80.984 58.752C81.8372 60.0185 81.5021 61.7368 80.2356 62.59 79.9434 62.7868 79.6164 62.926 79.272 63L72.621 64.769C64.5505 66.9149 56.2349 68.0011 47.884 68Z"/><path d="M40.978 15.991C40.9754 15.5521 41.1395 15.1286 41.437 14.806 41.8072 14.5446 42.2082 14.33 42.631 14.167 46.069 12.5943 50.0238 12.609 53.45 14.207 53.7982 14.348 54.1239 14.539 54.417 14.774 54.7334 15.1 54.91 15.5367 54.909 15.991L54.909 23 56.909 23 56.909 15.991C56.909 14.9999 56.5163 14.0492 55.817 13.347 55.3689 12.9523 54.86 12.6325 54.31 12.4 50.3536 10.5487 45.784 10.5268 41.81 12.34 41.1856 12.5868 40.6007 12.9237 40.074 13.34 39.3706 14.0435 38.975 14.9972 38.974 15.992L38.974 23 40.974 23Z"/></svg>