<svg viewBox="0 0 96 96" xmlns="http://www.w3.org/2000/svg" xmlns:xlink="http://www.w3.org/1999/xlink" id="Icons_ScalesofJustice_M" overflow="hidden"><g id="Icons"><path d="M85.91 55.5 78.263 23 81 23C81.5523 23 82 22.5523 82 22 82 21.4477 81.5523 21 81 21L51.858 21C51.4921 19.6007 50.3993 18.5079 49 18.142L49 9C49 8.44771 48.5523 8 48 8 47.4477 8 47 8.44771 47 9L47 18.142C45.6007 18.5079 44.5079 19.6007 44.142 21L15 21C14.4477 21 14 21.4477 14 22 14 22.5523 14.4477 23 15 23L17.737 23 10.09 55.5 7 55.5 7 56.5C7 60.554 12.49 63.729 19.5 63.729 26.51 63.729 32 60.554 32 56.5L32 55.5 28.91 55.5 21.263 23 44.142 23C44.5079 24.3993 45.6007 25.4921 47 25.858L47 81 40 81C37.7909 81 36 82.7909 36 85L38 85C38 83.8954 38.8954 83 40 83L56 83C57.1046 83 58 83.8954 58 85L60 85C60 82.7909 58.2091 81 56 81L49 81 49 25.858C50.3993 25.4921 51.4921 24.3993 51.858 23L74.737 23 67.09 55.5 64 55.5 64 56.5C64 60.554 69.49 63.729 76.5 63.729 83.51 63.729 89 60.554 89 56.5L89 55.5ZM83.855 55.5 69.145 55.5 76.49 24.283C76.49 24.2775 76.4945 24.273 76.5 24.273 76.5055 24.273 76.51 24.2775 76.51 24.283ZM19.51 24.283 26.855 55.5 12.145 55.5 19.49 24.283C19.49 24.2775 19.4945 24.273 19.5 24.273 19.5055 24.273 19.51 24.2775 19.51 24.283ZM19.5 61.729C14.493 61.729 10.169 59.876 9.2 57.5L29.8 57.5C28.831 59.876 24.507 61.729 19.5 61.729ZM48 24C46.8954 24 46 23.1046 46 22 46 20.8954 46.8954 20 48 20 49.1046 20 50 20.8954 50 22 50 23.1046 49.1046 24 48 24ZM76.5 61.729C71.493 61.729 67.169 59.876 66.2 57.5L86.8 57.5C85.831 59.876 81.507 61.729 76.5 61.729Z"/><rect x="24" y="86" width="48" height="2"/></g></svg>