<svg viewBox="0 0 96 96" xmlns="http://www.w3.org/2000/svg" xmlns:xlink="http://www.w3.org/1999/xlink" id="Icons_Bed" overflow="hidden"><path d="M89 39C87.3 39 86 40.3 86 42L86 56C86 51.6 82.4 48 78 48L32.6 48C32.8 47.4 33 46.7 33 46 33 42.7 30.3 40 27 40L16 40C12.7 40 10 42.7 10 46L10 27C10 25.3 8.7 24 7 24 5.3 24 4 25.3 4 27L4 72 10 72 10 62 86 62 86 72 92 72 92 42C92 40.3 90.7 39 89 39ZM16 44 27 44C28.1 44 29 44.9 29 46 29 47.1 28.1 48 27 48L16 48C14.9 48 14 47.1 14 46 14 44.9 14.9 44 16 44ZM10 56 10 52 78 52C80.2 52 82 53.8 82 56L10 56Z"/></svg>