<svg viewBox="0 0 96 96" xmlns="http://www.w3.org/2000/svg" xmlns:xlink="http://www.w3.org/1999/xlink" id="Icons_Internet_M" overflow="hidden"><g id="Icons"><path d="M77 61.9807 77.0039 25.9883 19.001 25.9883 19.001 61.9983ZM21.001 27.9883 75.0039 27.9883 75 59.9812 21.001 59.9976Z"/><path d="M16.001 24.9866C16.0023 23.8826 16.897 22.9879 18.001 22.9866L78.0039 22.9866C79.1079 22.988 80.0025 23.8826 80.0039 24.9866L80.0039 66 82.0039 66 82.0039 24.9866C82.0016 22.7784 80.2121 20.9889 78.0039 20.9866L18.001 20.9866C15.7928 20.9889 14.0033 22.7784 14.001 24.9866L14.001 66 16.001 66Z"/><path d="M53.0029 68.981 53.0029 70.981 43.002 70.981 43.002 68.981 2 68.981 2 70.98C2.00292 73.7404 4.23963 75.9775 7 75.981L89.0039 75.981C91.7646 75.978 94.0019 73.7407 94.0049 70.98L94.0049 68.981ZM89.0039 73.981 7 73.981C5.34404 73.9789 4.00215 72.637 4 70.981L41.002 70.981C40.9651 72.0487 41.8008 72.9441 42.8685 72.981 42.913 72.9825 42.9575 72.9825 43.002 72.981L53.0029 72.981C54.0706 73.0179 54.966 72.1822 55.0029 71.1145 55.0044 71.07 55.0044 71.0255 55.0029 70.981L92.0049 70.981C92.0023 72.6372 90.66 73.9789 89.0039 73.981Z"/><path d="M48 31C40.8203 31 35 36.8203 35 44 35 51.1797 40.8203 57 48 57 55.1797 57 61 51.1797 61 44 60.9918 36.8237 55.1763 31.0082 48 31ZM58.9493 43 55.4309 43C55.2926 39.4164 53.8002 36.0186 51.2549 33.4922 55.5041 34.8173 58.5393 38.5679 58.9493 43ZM47 34.2256 47 43 42.5742 43C42.8281 39.2288 44.5033 35.94 47 34.2256ZM47 45 47 53.7754C44.5061 52.0583 42.83 48.7585 42.575 45ZM49 53.7737 49 45 53.425 45C53.17 48.7544 51.4927 52.0557 49 53.7737ZM49 43 49 34.2271C51.4924 35.9451 53.17 39.2458 53.425 43ZM44.7267 33.4976C42.186 36.0232 40.6999 39.4199 40.5693 43L37.0507 43C37.46 38.5748 40.4865 34.8282 44.7267 33.4976ZM37.0507 45 40.5691 45C40.7057 48.583 42.1969 51.9806 44.7415 54.5068 40.4941 53.1805 37.4606 49.4307 37.0507 45ZM51.2559 54.5076C53.8007 51.981 55.2927 48.5834 55.4309 45L58.9493 45C58.5393 49.4317 55.5046 53.1821 51.2559 54.5076Z"/></g></svg>