<svg viewBox="0 0 96 96" xmlns="http://www.w3.org/2000/svg" xmlns:xlink="http://www.w3.org/1999/xlink" id="Icons_Coffee_M" overflow="hidden"><g id="Icons"><path d="M29.725 29.411C29.342 29.7606 29.3149 30.3546 29.6646 30.7376 29.6838 30.7586 29.704 30.7788 29.725 30.798 30.0725 31.1807 30.6644 31.2093 31.0472 30.8618 31.0695 30.8416 31.0908 30.8203 31.111 30.798 33.4112 28.4358 33.4112 24.6712 31.111 22.309 30.3324 21.5346 29.9022 20.477 29.919 19.379 29.9324 18.3587 30.3632 17.3883 31.111 16.694 31.5074 16.3246 31.5292 15.7039 31.1599 15.3075 30.7905 14.9112 30.1697 14.8893 29.7734 15.2586 29.7567 15.2742 29.7406 15.2903 29.725 15.307 27.4248 17.6692 27.4248 21.4338 29.725 23.796 31.2132 25.3718 31.2132 27.8352 29.725 29.411Z"/><path d="M39.889 23.411C39.506 23.7606 39.4789 24.3546 39.8286 24.7376 39.8478 24.7586 39.868 24.7788 39.889 24.798 40.2365 25.1807 40.8284 25.2093 41.2112 24.8618 41.2335 24.8416 41.2548 24.8203 41.275 24.798 43.5752 22.4358 43.5752 18.6712 41.275 16.309 40.4964 15.5346 40.0662 14.477 40.083 13.379 40.0964 12.3586 40.5272 11.3883 41.275 10.694 41.6714 10.3246 41.6932 9.70388 41.3239 9.30752 40.9545 8.91115 40.3337 8.88927 39.9374 9.25865 39.9207 9.2742 39.9046 9.29032 39.889 9.307 37.5888 11.6692 37.5888 15.4338 39.889 17.796 41.3777 19.3716 41.3777 21.8354 39.889 23.411Z"/><path d="M50.725 29.411C50.342 29.7606 50.3149 30.3546 50.6646 30.7376 50.6838 30.7586 50.7039 30.7788 50.725 30.798 51.0725 31.1807 51.6644 31.2093 52.0472 30.8618 52.0695 30.8416 52.0908 30.8203 52.111 30.798 54.4112 28.4358 54.4112 24.6712 52.111 22.309 51.3324 21.5346 50.9022 20.477 50.919 19.379 50.9324 18.3587 51.3632 17.3883 52.111 16.694 52.5074 16.3246 52.5292 15.7039 52.1599 15.3075 51.7905 14.9112 51.1697 14.8893 50.7734 15.2586 50.7567 15.2742 50.7406 15.2903 50.725 15.307 48.4248 17.6692 48.4248 21.4338 50.725 23.796 52.2132 25.3718 52.2132 27.8352 50.725 29.411Z"/><path d="M78.5 59.5C78.4873 51.7722 72.4186 45.4111 64.7 45.035L64.7 38 16.7 38 16.7 84C16.7066 86.2064 18.4936 87.9934 20.7 88L60.7 88C62.9064 87.9934 64.6934 86.2064 64.7 84L64.7 73.965C72.4186 73.5889 78.4873 67.2278 78.5 59.5ZM62.7 84C62.7 85.1046 61.8046 86 60.7 86L20.7 86C19.5954 86 18.7 85.1046 18.7 84L18.7 40 62.7 40ZM64.7 71.965 64.7 47.035C71.5842 47.4152 76.8567 53.3043 76.4765 60.1885 76.1256 66.5415 71.053 71.6141 64.7 71.965Z"/></g></svg>